<svg xmlns="http://www.w3.org/2000/svg" height="496" xmlns:xlink="http://www.w3.org/1999/xlink" width="496"><rect width="496" height="496" fill="rgba(255, 255, 255, 255)" x="0" y="0" /><g id="D152A5AB-DA61-4F30-AC15-DCC401851472"><rect y="16" fill="rgba(0, 0, 0, 255)" width="16" x="16" height="16" /><rect y="32" fill="rgba(0, 0, 0, 255)" width="16" x="16" height="16" /><rect y="16" fill="rgba(0, 0, 0, 255)" width="16" x="32" height="16" /><rect y="48" fill="rgba(0, 0, 0, 255)" width="16" x="16" height="16" /><rect y="16" fill="rgba(0, 0, 0, 255)" width="16" x="48" height="16" /><rect y="64" fill="rgba(0, 0, 0, 255)" width="16" x="16" height="16" /><rect y="16" fill="rgba(0, 0, 0, 255)" width="16" x="64" height="16" /><rect y="80" fill="rgba(0, 0, 0, 255)" width="16" x="16" height="16" /><rect y="16" fill="rgba(0, 0, 0, 255)" width="16" x="80" height="16" /><rect y="96" fill="rgba(0, 0, 0, 255)" width="16" x="16" height="16" /><rect fill="rgba(0, 0, 0, 255)" x="96" y="16" height="16" width="16" /><rect fill="rgba(0, 0, 0, 255)" x="16" y="112" height="16" width="16" /><rect y="16" fill="rgba(0, 0, 0, 255)" x="112" height="16" width="16" /><rect y="112" width="16" fill="rgba(0, 0, 0, 255)" height="16" x="32" /><rect fill="rgba(0, 0, 0, 255)" y="32" width="16" height="16" x="112" /><rect height="16" width="16" x="48" fill="rgba(0, 0, 0, 255)" y="112" /><rect width="16" y="48" x="112" height="16" fill="rgba(0, 0, 0, 255)" /><rect height="16" fill="rgba(0, 0, 0, 255)" y="112" width="16" x="64" /><rect x="112" height="16" width="16" fill="rgba(0, 0, 0, 255)" y="64" /><rect x="80" width="16" height="16" y="112" fill="rgba(0, 0, 0, 255)" /><rect width="16" height="16" y="80" fill="rgba(0, 0, 0, 255)" x="112" /><rect y="112" width="16" fill="rgba(0, 0, 0, 255)" x="96" height="16" /><rect width="16" height="16" fill="rgba(0, 0, 0, 255)" x="112" y="96" /><rect x="112" height="16" fill="rgba(0, 0, 0, 255)" width="16" y="112" /></g><g id="1C619AEF-B195-4AA0-8133-0406F0CA2C8E"><rect width="16" height="16" fill="rgba(0, 0, 0, 255)" x="16" y="144" /><rect y="160" width="16" fill="rgba(0, 0, 0, 255)" x="16" height="16" /><rect width="16" y="160" height="16" fill="rgba(0, 0, 0, 255)" x="32" /></g><g id="F57B8916-A6B1-4CE5-9FAD-E274136239E2"><rect fill="rgba(0, 0, 0, 255)" y="192" height="16" width="16" x="16" /></g><g id="E7207DC5-27C4-4975-9BC0-C26F33F07BE5"><rect width="16" height="16" fill="rgba(0, 0, 0, 255)" x="16" y="224" /></g><g id="ED8F2DE5-A187-4CF9-BCFA-9951C13BBBD7"><rect width="16" x="16" y="288" height="16" fill="rgba(0, 0, 0, 255)" /><rect width="16" x="16" y="304" height="16" fill="rgba(0, 0, 0, 255)" /><rect width="16" height="16" x="16" y="320" fill="rgba(0, 0, 0, 255)" /><rect fill="rgba(0, 0, 0, 255)" y="336" width="16" x="16" height="16" /></g><g id="36A96377-9044-4134-9FAA-BC574D3DC5BE"><rect fill="rgba(0, 0, 0, 255)" x="16" width="16" y="368" height="16" /><rect fill="rgba(0, 0, 0, 255)" x="16" width="16" y="384" height="16" /><rect x="32" height="16" y="368" fill="rgba(0, 0, 0, 255)" width="16" /><rect y="400" width="16" height="16" fill="rgba(0, 0, 0, 255)" x="16" /><rect y="368" height="16" x="48" width="16" fill="rgba(0, 0, 0, 255)" /><rect y="416" height="16" fill="rgba(0, 0, 0, 255)" width="16" x="16" /><rect width="16" x="64" fill="rgba(0, 0, 0, 255)" height="16" y="368" /><rect width="16" height="16" y="432" x="16" fill="rgba(0, 0, 0, 255)" /><rect x="80" y="368" width="16" fill="rgba(0, 0, 0, 255)" height="16" /><rect fill="rgba(0, 0, 0, 255)" y="448" x="16" width="16" height="16" /><rect x="96" y="368" fill="rgba(0, 0, 0, 255)" width="16" height="16" /><rect y="464" width="16" fill="rgba(0, 0, 0, 255)" height="16" x="16" /><rect x="112" height="16" fill="rgba(0, 0, 0, 255)" width="16" y="368" /><rect fill="rgba(0, 0, 0, 255)" height="16" y="464" x="32" width="16" /><rect y="384" width="16" height="16" fill="rgba(0, 0, 0, 255)" x="112" /><rect y="464" width="16" height="16" fill="rgba(0, 0, 0, 255)" x="48" /><rect x="112" width="16" fill="rgba(0, 0, 0, 255)" height="16" y="400" /><rect width="16" x="64" y="464" height="16" fill="rgba(0, 0, 0, 255)" /><rect y="416" fill="rgba(0, 0, 0, 255)" x="112" width="16" height="16" /><rect x="80" height="16" width="16" fill="rgba(0, 0, 0, 255)" y="464" /><rect fill="rgba(0, 0, 0, 255)" x="112" y="432" width="16" height="16" /><rect height="16" width="16" x="96" fill="rgba(0, 0, 0, 255)" y="464" /><rect width="16" height="16" x="112" y="448" fill="rgba(0, 0, 0, 255)" /><rect y="464" width="16" x="112" height="16" fill="rgba(0, 0, 0, 255)" /></g><g id="2BD82838-E66E-48BE-832D-DE50607DA3C5"><rect fill="rgba(0, 0, 0, 255)" y="272" width="16" x="32" height="16" /><rect fill="rgba(0, 0, 0, 255)" y="272" width="16" x="48" height="16" /><rect width="16" y="256" x="48" fill="rgba(0, 0, 0, 255)" height="16" /></g><g id="6A8EE8C4-F195-4BA4-AC58-F838E8B5A92C"><rect x="48" height="16" y="48" fill="rgba(0, 0, 0, 255)" width="16" /><rect x="48" height="16" y="64" fill="rgba(0, 0, 0, 255)" width="16" /><rect x="64" height="16" y="48" fill="rgba(0, 0, 0, 255)" width="16" /><rect x="48" height="16" y="80" fill="rgba(0, 0, 0, 255)" width="16" /><rect x="64" height="16" y="64" fill="rgba(0, 0, 0, 255)" width="16" /><rect x="80" height="16" y="48" fill="rgba(0, 0, 0, 255)" width="16" /><rect x="64" height="16" y="80" fill="rgba(0, 0, 0, 255)" width="16" /><rect x="80" height="16" y="64" fill="rgba(0, 0, 0, 255)" width="16" /><rect x="80" height="16" y="80" fill="rgba(0, 0, 0, 255)" width="16" /></g><g id="20ABBA44-F7D5-4C79-88E5-843DFCED1A89"><rect width="16" y="144" x="48" height="16" fill="rgba(0, 0, 0, 255)" /><rect width="16" y="144" x="64" height="16" fill="rgba(0, 0, 0, 255)" /><rect x="80" width="16" height="16" y="144" fill="rgba(0, 0, 0, 255)" /><rect x="80" fill="rgba(0, 0, 0, 255)" height="16" y="160" width="16" /><rect y="144" width="16" fill="rgba(0, 0, 0, 255)" x="96" height="16" /><rect y="144" height="16" fill="rgba(0, 0, 0, 255)" x="112" width="16" /></g><g id="A945F385-117D-49F9-A335-8D3BEFD27675"><rect fill="rgba(0, 0, 0, 255)" y="192" x="48" width="16" height="16" /><rect fill="rgba(0, 0, 0, 255)" y="208" x="48" width="16" height="16" /><rect fill="rgba(0, 0, 0, 255)" x="64" width="16" height="16" y="192" /><rect fill="rgba(0, 0, 0, 255)" width="16" y="192" height="16" x="80" /></g><g id="107B7A18-BB8D-4FB9-89DC-C21AC6A4A0C1"><rect fill="rgba(0, 0, 0, 255)" width="16" y="304" height="16" x="48" /><rect fill="rgba(0, 0, 0, 255)" width="16" y="320" height="16" x="48" /><rect y="336" fill="rgba(0, 0, 0, 255)" width="16" height="16" x="48" /><rect y="336" x="64" width="16" height="16" fill="rgba(0, 0, 0, 255)" /><rect fill="rgba(0, 0, 0, 255)" x="80" y="336" width="16" height="16" /><rect y="336" width="16" height="16" fill="rgba(0, 0, 0, 255)" x="96" /><rect y="320" width="16" height="16" fill="rgba(0, 0, 0, 255)" x="96" /><rect x="112" width="16" fill="rgba(0, 0, 0, 255)" height="16" y="336" /></g><g id="7CCBE1A0-4A5B-4BCF-BED4-D8DB3E988B83"><rect fill="rgba(0, 0, 0, 255)" width="16" y="400" height="16" x="48" /><rect y="416" fill="rgba(0, 0, 0, 255)" width="16" height="16" x="48" /><rect y="400" x="64" width="16" height="16" fill="rgba(0, 0, 0, 255)" /><rect fill="rgba(0, 0, 0, 255)" x="48" y="432" width="16" height="16" /><rect x="64" width="16" y="416" height="16" fill="rgba(0, 0, 0, 255)" /><rect x="80" width="16" y="400" height="16" fill="rgba(0, 0, 0, 255)" /><rect fill="rgba(0, 0, 0, 255)" width="16" height="16" x="64" y="432" /><rect y="416" fill="rgba(0, 0, 0, 255)" x="80" height="16" width="16" /><rect width="16" height="16" x="80" y="432" fill="rgba(0, 0, 0, 255)" /></g><g id="DB2472FA-06CF-4368-A885-C5F55BCEFF8B"><rect fill="rgba(0, 0, 0, 255)" width="16" y="288" height="16" x="64" /></g><g id="36E9F84B-166A-40DD-AD8B-5C523C311191"><rect height="16" y="272" fill="rgba(0, 0, 0, 255)" x="80" width="16" /></g><g id="B067C946-D8D8-40FF-986B-2DBAA89F176F"><rect fill="rgba(0, 0, 0, 255)" x="96" y="224" width="16" height="16" /></g><g id="A9EA2935-3C4C-4F9E-9946-C6C18CA7E3D8"><rect x="96" width="16" y="256" height="16" fill="rgba(0, 0, 0, 255)" /></g><g id="01F73282-00B3-46C2-BEB4-B071054E4002"><rect fill="rgba(0, 0, 0, 255)" x="96" y="288" width="16" height="16" /></g><g id="BA4714EC-BB16-47A5-842D-31835F1521F5"><rect width="16" height="16" x="112" y="176" fill="rgba(0, 0, 0, 255)" /><rect y="176" fill="rgba(0, 0, 0, 255)" x="128" width="16" height="16" /><rect width="16" height="16" fill="rgba(0, 0, 0, 255)" x="128" y="160" /><rect fill="rgba(0, 0, 0, 255)" height="16" x="144" y="176" width="16" /><rect x="144" height="16" fill="rgba(0, 0, 0, 255)" y="160" width="16" /><rect fill="rgba(0, 0, 0, 255)" width="16" height="16" y="176" x="160" /><rect fill="rgba(0, 0, 0, 255)" width="16" y="192" x="160" height="16" /><rect y="176" width="16" height="16" x="176" fill="rgba(0, 0, 0, 255)" /><rect fill="rgba(0, 0, 0, 255)" width="16" x="160" height="16" y="208" /><rect x="176" y="192" width="16" fill="rgba(0, 0, 0, 255)" height="16" /><rect width="16" fill="rgba(0, 0, 0, 255)" y="208" height="16" x="144" /><rect fill="rgba(0, 0, 0, 255)" height="16" x="160" y="224" width="16" /><rect width="16" x="176" height="16" fill="rgba(0, 0, 0, 255)" y="208" /><rect y="208" fill="rgba(0, 0, 0, 255)" width="16" height="16" x="128" /><rect fill="rgba(0, 0, 0, 255)" y="224" width="16" height="16" x="176" /><rect x="192" width="16" height="16" fill="rgba(0, 0, 0, 255)" y="208" /><rect height="16" fill="rgba(0, 0, 0, 255)" x="112" y="208" width="16" /></g><g id="251C6FCF-7E9A-4B6E-940E-7A3C52618F21"><rect width="16" height="16" x="112" y="240" fill="rgba(0, 0, 0, 255)" /><rect width="16" height="16" x="128" y="240" fill="rgba(0, 0, 0, 255)" /><rect y="256" fill="rgba(0, 0, 0, 255)" x="128" width="16" height="16" /><rect width="16" height="16" fill="rgba(0, 0, 0, 255)" x="128" y="272" /><rect fill="rgba(0, 0, 0, 255)" height="16" x="112" y="272" width="16" /><rect x="144" height="16" fill="rgba(0, 0, 0, 255)" y="272" width="16" /><rect fill="rgba(0, 0, 0, 255)" width="16" height="16" y="272" x="160" /></g><g id="DD0BDAAC-84F8-48C1-8213-75B5FE7DDBB5"><rect y="304" width="16" fill="rgba(0, 0, 0, 255)" height="16" x="112" /><rect y="304" width="16" fill="rgba(0, 0, 0, 255)" height="16" x="128" /><rect x="128" width="16" fill="rgba(0, 0, 0, 255)" y="320" height="16" /><rect height="16" fill="rgba(0, 0, 0, 255)" x="144" y="320" width="16" /><rect x="144" width="16" height="16" y="336" fill="rgba(0, 0, 0, 255)" /><rect height="16" width="16" fill="rgba(0, 0, 0, 255)" x="144" y="352" /><rect x="160" fill="rgba(0, 0, 0, 255)" width="16" y="352" height="16" /><rect fill="rgba(0, 0, 0, 255)" width="16" height="16" x="176" y="352" /><rect fill="rgba(0, 0, 0, 255)" x="176" y="368" height="16" width="16" /><rect y="384" x="176" width="16" height="16" fill="rgba(0, 0, 0, 255)" /><rect x="160" y="384" height="16" fill="rgba(0, 0, 0, 255)" width="16" /><rect y="384" height="16" x="144" width="16" fill="rgba(0, 0, 0, 255)" /><rect width="16" fill="rgba(0, 0, 0, 255)" y="400" height="16" x="144" /><rect height="16" x="144" y="416" width="16" fill="rgba(0, 0, 0, 255)" /><rect x="144" fill="rgba(0, 0, 0, 255)" y="432" width="16" height="16" /><rect y="416" fill="rgba(0, 0, 0, 255)" x="160" height="16" width="16" /><rect x="176" height="16" width="16" fill="rgba(0, 0, 0, 255)" y="416" /><rect fill="rgba(0, 0, 0, 255)" y="432" width="16" x="176" height="16" /><rect fill="rgba(0, 0, 0, 255)" y="416" width="16" x="192" height="16" /><rect y="448" height="16" x="176" width="16" fill="rgba(0, 0, 0, 255)" /><rect fill="rgba(0, 0, 0, 255)" y="400" x="192" height="16" width="16" /><rect y="416" width="16" height="16" fill="rgba(0, 0, 0, 255)" x="208" /><rect width="16" y="448" fill="rgba(0, 0, 0, 255)" x="160" height="16" /><rect x="176" width="16" fill="rgba(0, 0, 0, 255)" height="16" y="464" /><rect height="16" fill="rgba(0, 0, 0, 255)" y="464" width="16" x="160" /><rect width="16" x="144" y="464" height="16" fill="rgba(0, 0, 0, 255)" /></g><g id="075C794F-006C-46F1-BD0A-5D20FE0A92EE"><rect y="48" fill="rgba(0, 0, 0, 255)" height="16" x="144" width="16" /><rect y="64" fill="rgba(0, 0, 0, 255)" height="16" x="144" width="16" /><rect y="80" fill="rgba(0, 0, 0, 255)" height="16" x="144" width="16" /><rect x="160" y="64" width="16" height="16" fill="rgba(0, 0, 0, 255)" /><rect x="144" width="16" fill="rgba(0, 0, 0, 255)" y="96" height="16" /><rect x="144" height="16" y="112" width="16" fill="rgba(0, 0, 0, 255)" /><rect y="128" x="144" width="16" fill="rgba(0, 0, 0, 255)" height="16" /><rect x="160" y="128" height="16" fill="rgba(0, 0, 0, 255)" width="16" /></g><g id="5A966AF0-E6CF-449F-ADD1-1C7725425014"><rect x="160" height="16" y="16" width="16" fill="rgba(0, 0, 0, 255)" /><rect x="176" height="16" y="16" width="16" fill="rgba(0, 0, 0, 255)" /><rect x="176" height="16" y="32" width="16" fill="rgba(0, 0, 0, 255)" /><rect x="192" height="16" y="16" width="16" fill="rgba(0, 0, 0, 255)" /><rect x="176" height="16" y="48" width="16" fill="rgba(0, 0, 0, 255)" /><rect width="16" fill="rgba(0, 0, 0, 255)" y="16" x="208" height="16" /><rect x="192" y="48" height="16" width="16" fill="rgba(0, 0, 0, 255)" /><rect width="16" height="16" y="16" fill="rgba(0, 0, 0, 255)" x="224" /><rect fill="rgba(0, 0, 0, 255)" height="16" x="224" width="16" y="32" /><rect width="16" y="16" height="16" fill="rgba(0, 0, 0, 255)" x="240" /><rect y="48" width="16" fill="rgba(0, 0, 0, 255)" x="224" height="16" /><rect height="16" fill="rgba(0, 0, 0, 255)" x="240" y="32" width="16" /><rect fill="rgba(0, 0, 0, 255)" height="16" y="16" x="256" width="16" /><rect fill="rgba(0, 0, 0, 255)" y="32" height="16" width="16" x="256" /><rect y="48" width="16" fill="rgba(0, 0, 0, 255)" height="16" x="256" /><rect y="32" height="16" x="272" width="16" fill="rgba(0, 0, 0, 255)" /><rect x="256" y="64" fill="rgba(0, 0, 0, 255)" height="16" width="16" /><rect x="288" height="16" width="16" fill="rgba(0, 0, 0, 255)" y="32" /><rect width="16" y="64" height="16" fill="rgba(0, 0, 0, 255)" x="240" /><rect x="256" width="16" height="16" fill="rgba(0, 0, 0, 255)" y="80" /><rect y="16" width="16" x="288" fill="rgba(0, 0, 0, 255)" height="16" /><rect height="16" x="272" width="16" y="80" fill="rgba(0, 0, 0, 255)" /><rect width="16" y="16" height="16" fill="rgba(0, 0, 0, 255)" x="304" /><rect y="16" width="16" height="16" x="320" fill="rgba(0, 0, 0, 255)" /></g><g id="B55177E1-C04F-4EB1-B1BB-FE181C8CC8C7"><rect fill="rgba(0, 0, 0, 255)" height="16" x="160" y="304" width="16" /><rect fill="rgba(0, 0, 0, 255)" height="16" x="176" y="304" width="16" /><rect fill="rgba(0, 0, 0, 255)" height="16" x="176" y="288" width="16" /><rect fill="rgba(0, 0, 0, 255)" height="16" x="176" y="320" width="16" /><rect y="288" height="16" x="192" width="16" fill="rgba(0, 0, 0, 255)" /><rect height="16" fill="rgba(0, 0, 0, 255)" x="192" y="320" width="16" /><rect x="192" width="16" y="336" height="16" fill="rgba(0, 0, 0, 255)" /><rect width="16" height="16" y="320" fill="rgba(0, 0, 0, 255)" x="208" /><rect width="16" x="208" y="304" height="16" fill="rgba(0, 0, 0, 255)" /><rect x="224" y="320" width="16" fill="rgba(0, 0, 0, 255)" height="16" /><rect y="304" width="16" fill="rgba(0, 0, 0, 255)" x="224" height="16" /><rect width="16" height="16" fill="rgba(0, 0, 0, 255)" y="288" x="224" /><rect width="16" height="16" x="240" fill="rgba(0, 0, 0, 255)" y="304" /><rect height="16" x="240" width="16" y="288" fill="rgba(0, 0, 0, 255)" /><rect fill="rgba(0, 0, 0, 255)" width="16" x="256" height="16" y="304" /><rect x="256" height="16" y="320" fill="rgba(0, 0, 0, 255)" width="16" /></g><g id="2019289D-18BB-439A-A89D-B985C76C528E"><rect fill="rgba(0, 0, 0, 255)" height="16" x="176" y="80" width="16" /></g><g id="C0FA79AA-B08F-4AD2-BCCD-6AEB55F8EFF6"><rect fill="rgba(0, 0, 0, 255)" height="16" x="176" y="112" width="16" /></g><g id="E6D443B8-7076-4282-A816-3507741FB4D2"><rect x="176" y="256" height="16" fill="rgba(0, 0, 0, 255)" width="16" /></g><g id="CAC45E5F-8644-459B-BD99-487BA0A568BF"><rect x="192" width="16" y="96" height="16" fill="rgba(0, 0, 0, 255)" /></g><g id="EC77BEC4-F79B-4E21-8A5C-69CAB4CDC91C"><rect width="16" y="128" height="16" x="192" fill="rgba(0, 0, 0, 255)" /><rect width="16" y="144" height="16" x="192" fill="rgba(0, 0, 0, 255)" /><rect width="16" y="128" height="16" x="208" fill="rgba(0, 0, 0, 255)" /><rect width="16" y="160" height="16" x="192" fill="rgba(0, 0, 0, 255)" /><rect width="16" fill="rgba(0, 0, 0, 255)" x="208" y="144" height="16" /><rect fill="rgba(0, 0, 0, 255)" width="16" height="16" x="208" y="112" /><rect y="160" width="16" height="16" x="208" fill="rgba(0, 0, 0, 255)" /><rect width="16" fill="rgba(0, 0, 0, 255)" height="16" x="224" y="160" /><rect width="16" x="224" y="176" height="16" fill="rgba(0, 0, 0, 255)" /><rect x="240" height="16" y="160" width="16" fill="rgba(0, 0, 0, 255)" /><rect fill="rgba(0, 0, 0, 255)" width="16" x="224" y="192" height="16" /><rect height="16" width="16" fill="rgba(0, 0, 0, 255)" y="176" x="240" /><rect height="16" y="160" x="256" fill="rgba(0, 0, 0, 255)" width="16" /><rect height="16" x="208" fill="rgba(0, 0, 0, 255)" y="192" width="16" /><rect height="16" width="16" x="256" fill="rgba(0, 0, 0, 255)" y="176" /></g><g id="91AFF630-8185-4DD1-B968-BB6EBF3D2827"><rect y="272" width="16" x="208" height="16" fill="rgba(0, 0, 0, 255)" /></g><g id="70BCD8AF-5631-4797-A325-1EB48422C92B"><rect x="208" y="352" width="16" fill="rgba(0, 0, 0, 255)" height="16" /></g><g id="E13FCE95-99EB-43AF-88B4-C17458418B7A"><rect height="16" fill="rgba(0, 0, 0, 255)" y="384" x="208" width="16" /></g><g id="41C4FE8E-0DE9-4F38-A4EF-A024E18269C9"><rect width="16" height="16" x="224" fill="rgba(0, 0, 0, 255)" y="432" /></g><g id="5D6CBD69-A60A-48D6-8ADA-30C2738D4A0D"><rect width="16" height="16" fill="rgba(0, 0, 0, 255)" x="240" y="112" /><rect width="16" height="16" fill="rgba(0, 0, 0, 255)" x="240" y="128" /></g><g id="57E4312B-A08E-4041-B079-3282EAF9F41C"><rect x="240" width="16" fill="rgba(0, 0, 0, 255)" y="208" height="16" /></g><g id="D92985EE-1DD0-49FE-A445-C32521B02643"><rect width="16" height="16" fill="rgba(0, 0, 0, 255)" x="240" y="256" /></g><g id="BC258212-4BBA-4951-B4F6-C15EA8A7A835"><rect fill="rgba(0, 0, 0, 255)" y="336" x="240" width="16" height="16" /></g><g id="7727648D-A2D5-40F8-8EB6-5EC580DB2B10"><rect x="240" y="384" width="16" height="16" fill="rgba(0, 0, 0, 255)" /><rect x="256" y="384" width="16" height="16" fill="rgba(0, 0, 0, 255)" /><rect x="256" y="368" width="16" height="16" fill="rgba(0, 0, 0, 255)" /><rect x="272" y="384" width="16" height="16" fill="rgba(0, 0, 0, 255)" /></g><g id="9781D25A-CA86-449C-B23E-685C2584AF1A"><rect height="16" x="240" fill="rgba(0, 0, 0, 255)" width="16" y="416" /></g><g id="B7BBC35F-00DD-4D5E-9835-580CDD7DF0AF"><rect y="448" x="240" width="16" height="16" fill="rgba(0, 0, 0, 255)" /></g><g id="2A8302CD-150D-4B35-99D5-EA31FBB27139"><rect x="256" fill="rgba(0, 0, 0, 255)" width="16" y="240" height="16" /></g><g id="B81FC186-023A-4E7C-A36A-39D9FC6A8BAB"><rect x="256" fill="rgba(0, 0, 0, 255)" y="432" height="16" width="16" /><rect x="272" fill="rgba(0, 0, 0, 255)" y="432" height="16" width="16" /><rect x="272" fill="rgba(0, 0, 0, 255)" y="416" height="16" width="16" /><rect x="288" fill="rgba(0, 0, 0, 255)" y="432" height="16" width="16" /><rect x="304" height="16" y="432" fill="rgba(0, 0, 0, 255)" width="16" /></g><g id="DEB6E06E-E87A-4E2F-B1CD-02B74987227D"><rect x="256" height="16" fill="rgba(0, 0, 0, 255)" y="464" width="16" /><rect x="272" height="16" fill="rgba(0, 0, 0, 255)" y="464" width="16" /><rect x="288" height="16" fill="rgba(0, 0, 0, 255)" y="464" width="16" /></g><g id="6B63E9DE-06A8-4B31-906A-AD797811366D"><rect x="272" height="16" fill="rgba(0, 0, 0, 255)" y="112" width="16" /><rect x="272" height="16" fill="rgba(0, 0, 0, 255)" y="128" width="16" /></g><g id="A7DEA133-ABE1-41C6-8C79-39A10CB0599C"><rect y="192" height="16" x="272" fill="rgba(0, 0, 0, 255)" width="16" /></g><g id="36AE6658-C100-4F83-B640-81F77CC76BB7"><rect y="224" height="16" x="272" fill="rgba(0, 0, 0, 255)" width="16" /></g><g id="7ADABD57-D7DF-401F-B8CE-81E8A6877FC2"><rect x="272" height="16" fill="rgba(0, 0, 0, 255)" y="256" width="16" /></g><g id="32C6444D-450D-493C-8D42-C47075E7C128"><rect width="16" x="272" height="16" y="288" fill="rgba(0, 0, 0, 255)" /><rect width="16" x="288" height="16" y="288" fill="rgba(0, 0, 0, 255)" /><rect width="16" x="288" height="16" y="272" fill="rgba(0, 0, 0, 255)" /><rect width="16" x="304" height="16" y="272" fill="rgba(0, 0, 0, 255)" /><rect x="304" height="16" width="16" fill="rgba(0, 0, 0, 255)" y="256" /><rect width="16" height="16" x="304" y="240" fill="rgba(0, 0, 0, 255)" /></g><g id="AF97D199-11CB-41DF-90D0-0E698E87FA21"><rect x="272" y="336" fill="rgba(0, 0, 0, 255)" width="16" height="16" /><rect x="272" y="352" fill="rgba(0, 0, 0, 255)" width="16" height="16" /><rect x="288" y="336" fill="rgba(0, 0, 0, 255)" width="16" height="16" /><rect x="304" y="336" fill="rgba(0, 0, 0, 255)" width="16" height="16" /><rect height="16" x="320" y="336" fill="rgba(0, 0, 0, 255)" width="16" /><rect y="320" width="16" x="320" fill="rgba(0, 0, 0, 255)" height="16" /><rect x="336" height="16" width="16" y="336" fill="rgba(0, 0, 0, 255)" /><rect fill="rgba(0, 0, 0, 255)" x="336" width="16" y="320" height="16" /><rect width="16" fill="rgba(0, 0, 0, 255)" y="352" x="336" height="16" /><rect x="352" width="16" fill="rgba(0, 0, 0, 255)" y="336" height="16" /><rect width="16" x="336" y="304" height="16" fill="rgba(0, 0, 0, 255)" /><rect width="16" y="368" height="16" x="336" fill="rgba(0, 0, 0, 255)" /><rect height="16" x="368" fill="rgba(0, 0, 0, 255)" width="16" y="336" /><rect width="16" height="16" y="288" x="336" fill="rgba(0, 0, 0, 255)" /><rect height="16" x="320" width="16" y="368" fill="rgba(0, 0, 0, 255)" /><rect x="336" y="384" fill="rgba(0, 0, 0, 255)" width="16" height="16" /><rect x="384" y="336" height="16" width="16" fill="rgba(0, 0, 0, 255)" /><rect y="288" width="16" x="320" height="16" fill="rgba(0, 0, 0, 255)" /><rect x="336" height="16" fill="rgba(0, 0, 0, 255)" y="272" width="16" /><rect width="16" x="352" y="288" height="16" fill="rgba(0, 0, 0, 255)" /><rect width="16" fill="rgba(0, 0, 0, 255)" y="368" x="304" height="16" /><rect width="16" x="336" height="16" fill="rgba(0, 0, 0, 255)" y="400" /><rect height="16" y="336" fill="rgba(0, 0, 0, 255)" x="400" width="16" /><rect height="16" y="256" width="16" fill="rgba(0, 0, 0, 255)" x="336" /><rect y="288" width="16" height="16" fill="rgba(0, 0, 0, 255)" x="368" /><rect x="336" y="416" width="16" height="16" fill="rgba(0, 0, 0, 255)" /><rect height="16" x="352" width="16" fill="rgba(0, 0, 0, 255)" y="400" /><rect x="400" fill="rgba(0, 0, 0, 255)" height="16" y="352" width="16" /><rect width="16" height="16" fill="rgba(0, 0, 0, 255)" y="288" x="384" /><rect width="16" height="16" fill="rgba(0, 0, 0, 255)" y="416" x="352" /><rect y="400" fill="rgba(0, 0, 0, 255)" width="16" height="16" x="368" /><rect width="16" height="16" x="400" fill="rgba(0, 0, 0, 255)" y="368" /><rect fill="rgba(0, 0, 0, 255)" x="416" height="16" width="16" y="352" /><rect fill="rgba(0, 0, 0, 255)" height="16" width="16" y="304" x="384" /><rect y="288" width="16" height="16" fill="rgba(0, 0, 0, 255)" x="400" /><rect fill="rgba(0, 0, 0, 255)" x="352" y="432" height="16" width="16" /><rect fill="rgba(0, 0, 0, 255)" height="16" x="384" y="400" width="16" /><rect width="16" height="16" y="384" fill="rgba(0, 0, 0, 255)" x="400" /><rect width="16" fill="rgba(0, 0, 0, 255)" y="368" height="16" x="416" /><rect fill="rgba(0, 0, 0, 255)" x="432" y="352" width="16" height="16" /><rect width="16" x="400" y="304" height="16" fill="rgba(0, 0, 0, 255)" /><rect fill="rgba(0, 0, 0, 255)" y="432" width="16" x="368" height="16" /><rect height="16" x="400" width="16" y="400" fill="rgba(0, 0, 0, 255)" /><rect width="16" height="16" fill="rgba(0, 0, 0, 255)" x="432" y="368" /><rect fill="rgba(0, 0, 0, 255)" x="432" y="336" width="16" height="16" /><rect width="16" height="16" y="352" fill="rgba(0, 0, 0, 255)" x="448" /><rect height="16" fill="rgba(0, 0, 0, 255)" y="448" x="368" width="16" /><rect fill="rgba(0, 0, 0, 255)" width="16" x="384" y="432" height="16" /><rect height="16" width="16" fill="rgba(0, 0, 0, 255)" x="448" y="336" /><rect height="16" width="16" x="464" y="352" fill="rgba(0, 0, 0, 255)" /><rect x="368" height="16" width="16" fill="rgba(0, 0, 0, 255)" y="464" /><rect x="400" width="16" fill="rgba(0, 0, 0, 255)" y="432" height="16" /><rect x="448" fill="rgba(0, 0, 0, 255)" y="320" width="16" height="16" /><rect width="16" fill="rgba(0, 0, 0, 255)" x="464" height="16" y="336" /><rect height="16" width="16" fill="rgba(0, 0, 0, 255)" x="384" y="464" /><rect x="400" width="16" y="448" height="16" fill="rgba(0, 0, 0, 255)" /><rect y="432" x="416" width="16" fill="rgba(0, 0, 0, 255)" height="16" /><rect fill="rgba(0, 0, 0, 255)" width="16" x="416" height="16" y="448" /><rect width="16" fill="rgba(0, 0, 0, 255)" y="416" x="416" height="16" /><rect x="432" width="16" y="432" height="16" fill="rgba(0, 0, 0, 255)" /><rect width="16" height="16" fill="rgba(0, 0, 0, 255)" x="432" y="416" /><rect fill="rgba(0, 0, 0, 255)" y="432" width="16" height="16" x="448" /><rect width="16" height="16" fill="rgba(0, 0, 0, 255)" x="432" y="400" /><rect width="16" fill="rgba(0, 0, 0, 255)" height="16" x="448" y="416" /><rect fill="rgba(0, 0, 0, 255)" y="448" width="16" x="448" height="16" /><rect height="16" x="448" width="16" fill="rgba(0, 0, 0, 255)" y="400" /><rect width="16" height="16" fill="rgba(0, 0, 0, 255)" y="416" x="464" /><rect height="16" x="448" width="16" y="384" fill="rgba(0, 0, 0, 255)" /><rect x="464" fill="rgba(0, 0, 0, 255)" width="16" height="16" y="384" /></g><g id="B8FBD228-8039-40BF-93E8-354DABFE7A86"><rect width="16" height="16" x="288" fill="rgba(0, 0, 0, 255)" y="64" /><rect width="16" height="16" x="304" fill="rgba(0, 0, 0, 255)" y="64" /><rect width="16" height="16" x="304" fill="rgba(0, 0, 0, 255)" y="80" /><rect width="16" height="16" x="320" fill="rgba(0, 0, 0, 255)" y="80" /><rect width="16" y="80" x="336" fill="rgba(0, 0, 0, 255)" height="16" /><rect height="16" fill="rgba(0, 0, 0, 255)" x="336" y="64" width="16" /><rect y="96" width="16" x="336" height="16" fill="rgba(0, 0, 0, 255)" /><rect width="16" x="336" fill="rgba(0, 0, 0, 255)" y="112" height="16" /><rect width="16" y="128" fill="rgba(0, 0, 0, 255)" height="16" x="336" /><rect x="320" y="128" width="16" height="16" fill="rgba(0, 0, 0, 255)" /><rect y="144" x="320" fill="rgba(0, 0, 0, 255)" width="16" height="16" /><rect fill="rgba(0, 0, 0, 255)" height="16" y="144" x="304" width="16" /><rect y="160" fill="rgba(0, 0, 0, 255)" width="16" height="16" x="320" /><rect width="16" fill="rgba(0, 0, 0, 255)" x="288" height="16" y="144" /></g><g id="EDD87FC9-EB14-4E63-8579-27A1AD14F46F"><rect x="288" y="208" fill="rgba(0, 0, 0, 255)" width="16" height="16" /><rect x="304" y="208" fill="rgba(0, 0, 0, 255)" width="16" height="16" /><rect x="304" y="192" fill="rgba(0, 0, 0, 255)" width="16" height="16" /><rect height="16" x="320" y="208" fill="rgba(0, 0, 0, 255)" width="16" /><rect y="224" width="16" x="320" fill="rgba(0, 0, 0, 255)" height="16" /><rect x="336" height="16" width="16" y="224" fill="rgba(0, 0, 0, 255)" /><rect fill="rgba(0, 0, 0, 255)" x="352" width="16" y="224" height="16" /><rect width="16" fill="rgba(0, 0, 0, 255)" y="224" x="368" height="16" /><rect x="368" width="16" fill="rgba(0, 0, 0, 255)" y="240" height="16" /><rect width="16" x="384" y="224" height="16" fill="rgba(0, 0, 0, 255)" /><rect width="16" y="224" height="16" x="400" fill="rgba(0, 0, 0, 255)" /></g><g id="FD869775-6B9E-4301-9BE0-3D92DBD2A8FE"><rect x="288" width="16" y="400" height="16" fill="rgba(0, 0, 0, 255)" /><rect x="304" width="16" y="400" height="16" fill="rgba(0, 0, 0, 255)" /></g><g id="ED3EFAC4-98F8-4A63-81C6-BCC81C5B9B1D"><rect height="16" x="304" y="112" fill="rgba(0, 0, 0, 255)" width="16" /></g><g id="30D98686-B5B3-41C8-9484-AA8E1B13D733"><rect height="16" x="304" y="304" fill="rgba(0, 0, 0, 255)" width="16" /></g><g id="E42A42D1-357F-4897-AB1D-34CA19C2A418"><rect y="448" x="320" height="16" width="16" fill="rgba(0, 0, 0, 255)" /><rect y="464" x="320" height="16" width="16" fill="rgba(0, 0, 0, 255)" /></g><g id="77A9F04E-A604-4403-ABD6-28AFB5231869"><rect width="16" y="176" fill="rgba(0, 0, 0, 255)" x="336" height="16" /></g><g id="C920949F-7C69-43FC-89FF-282C0078F1DF"><rect fill="rgba(0, 0, 0, 255)" x="352" y="160" height="16" width="16" /><rect fill="rgba(0, 0, 0, 255)" x="368" y="160" height="16" width="16" /><rect fill="rgba(0, 0, 0, 255)" x="368" y="144" height="16" width="16" /><rect fill="rgba(0, 0, 0, 255)" x="368" y="176" height="16" width="16" /><rect height="16" x="384" y="144" width="16" fill="rgba(0, 0, 0, 255)" /><rect y="192" height="16" width="16" fill="rgba(0, 0, 0, 255)" x="368" /><rect fill="rgba(0, 0, 0, 255)" y="176" width="16" x="384" height="16" /><rect height="16" width="16" y="144" x="400" fill="rgba(0, 0, 0, 255)" /><rect height="16" width="16" x="352" fill="rgba(0, 0, 0, 255)" y="192" /><rect height="16" y="192" width="16" fill="rgba(0, 0, 0, 255)" x="384" /><rect y="176" fill="rgba(0, 0, 0, 255)" x="400" width="16" height="16" /><rect height="16" width="16" x="400" y="160" fill="rgba(0, 0, 0, 255)" /><rect height="16" fill="rgba(0, 0, 0, 255)" y="144" x="416" width="16" /><rect x="400" y="192" fill="rgba(0, 0, 0, 255)" height="16" width="16" /><rect x="432" y="144" width="16" height="16" fill="rgba(0, 0, 0, 255)" /><rect width="16" x="416" y="192" height="16" fill="rgba(0, 0, 0, 255)" /><rect y="208" x="416" height="16" fill="rgba(0, 0, 0, 255)" width="16" /><rect x="432" width="16" fill="rgba(0, 0, 0, 255)" y="208" height="16" /></g><g id="DA84F200-5DB7-4A75-9BD6-65481DA27758"><rect width="16" y="16" height="16" x="368" fill="rgba(0, 0, 0, 255)" /><rect width="16" y="32" height="16" x="368" fill="rgba(0, 0, 0, 255)" /><rect width="16" y="16" height="16" x="384" fill="rgba(0, 0, 0, 255)" /><rect width="16" y="48" height="16" x="368" fill="rgba(0, 0, 0, 255)" /><rect y="16" width="16" height="16" fill="rgba(0, 0, 0, 255)" x="400" /><rect y="64" width="16" height="16" x="368" fill="rgba(0, 0, 0, 255)" /><rect x="416" width="16" height="16" y="16" fill="rgba(0, 0, 0, 255)" /><rect height="16" x="368" y="80" width="16" fill="rgba(0, 0, 0, 255)" /><rect width="16" fill="rgba(0, 0, 0, 255)" x="432" height="16" y="16" /><rect fill="rgba(0, 0, 0, 255)" x="368" height="16" y="96" width="16" /><rect x="448" y="16" height="16" width="16" fill="rgba(0, 0, 0, 255)" /><rect fill="rgba(0, 0, 0, 255)" height="16" x="368" width="16" y="112" /><rect height="16" fill="rgba(0, 0, 0, 255)" y="16" width="16" x="464" /><rect fill="rgba(0, 0, 0, 255)" y="112" x="384" width="16" height="16" /><rect height="16" x="464" fill="rgba(0, 0, 0, 255)" y="32" width="16" /><rect y="112" fill="rgba(0, 0, 0, 255)" x="400" height="16" width="16" /><rect height="16" fill="rgba(0, 0, 0, 255)" y="48" x="464" width="16" /><rect width="16" y="112" fill="rgba(0, 0, 0, 255)" x="416" height="16" /><rect height="16" y="64" fill="rgba(0, 0, 0, 255)" x="464" width="16" /><rect y="112" x="432" height="16" width="16" fill="rgba(0, 0, 0, 255)" /><rect x="464" y="80" height="16" fill="rgba(0, 0, 0, 255)" width="16" /><rect width="16" fill="rgba(0, 0, 0, 255)" height="16" y="112" x="448" /><rect width="16" x="464" y="96" height="16" fill="rgba(0, 0, 0, 255)" /><rect y="112" fill="rgba(0, 0, 0, 255)" x="464" height="16" width="16" /></g><g id="CC8E3B7C-8CF9-45B1-B670-F0C537DEAEA3"><rect y="368" fill="rgba(0, 0, 0, 255)" height="16" x="368" width="16" /></g><g id="6D83CA94-4740-49D7-8DD0-C0063E183025"><rect fill="rgba(0, 0, 0, 255)" height="16" x="384" y="256" width="16" /></g><g id="0C0E1E1B-7B34-41AB-AB91-57E2A4180532"><rect height="16" x="400" width="16" fill="rgba(0, 0, 0, 255)" y="48" /><rect height="16" x="400" width="16" fill="rgba(0, 0, 0, 255)" y="64" /><rect height="16" x="416" width="16" fill="rgba(0, 0, 0, 255)" y="48" /><rect width="16" height="16" fill="rgba(0, 0, 0, 255)" x="400" y="80" /><rect y="64" x="416" width="16" height="16" fill="rgba(0, 0, 0, 255)" /><rect width="16" x="432" height="16" y="48" fill="rgba(0, 0, 0, 255)" /><rect x="416" width="16" y="80" height="16" fill="rgba(0, 0, 0, 255)" /><rect x="432" width="16" fill="rgba(0, 0, 0, 255)" height="16" y="64" /><rect y="80" height="16" fill="rgba(0, 0, 0, 255)" width="16" x="432" /></g><g id="B04FC4D7-9F27-4D8C-A72D-A5AD46CA86F5"><rect height="16" x="416" width="16" fill="rgba(0, 0, 0, 255)" y="240" /><rect height="16" x="432" width="16" fill="rgba(0, 0, 0, 255)" y="240" /></g><g id="E758F6A5-2332-41B2-B801-32C6C53C58D6"><rect x="416" height="16" width="16" fill="rgba(0, 0, 0, 255)" y="272" /><rect x="432" height="16" width="16" fill="rgba(0, 0, 0, 255)" y="272" /><rect x="432" height="16" width="16" fill="rgba(0, 0, 0, 255)" y="288" /><rect x="432" height="16" width="16" fill="rgba(0, 0, 0, 255)" y="304" /></g><g id="35512B4A-FA69-459D-9D88-99415B4B4ADB"><rect width="16" fill="rgba(0, 0, 0, 255)" y="464" height="16" x="432" /></g><g id="967B3301-327F-4117-B5D9-10672B67F8A6"><rect fill="rgba(0, 0, 0, 255)" height="16" width="16" x="448" y="192" /></g><g id="7491537F-A802-44E2-ABE5-51F1C37B311F"><rect fill="rgba(0, 0, 0, 255)" x="448" y="256" width="16" height="16" /></g><g id="7CDEFD6C-6137-4636-8DD9-E150809BED06"><rect width="16" fill="rgba(0, 0, 0, 255)" x="464" y="160" height="16" /></g><g id="B217AFF7-9F14-4FB2-8E23-3772E56F2E53"><rect height="16" fill="rgba(0, 0, 0, 255)" x="464" width="16" y="224" /></g><g id="AD3F6342-D7FA-4AC6-A8D2-872FBBA0E1A3"><rect height="16" y="288" fill="rgba(0, 0, 0, 255)" width="16" x="464" /></g></svg>